<svg width="209" height="208" viewBox="0 0 209 208" fill="none" xmlns="http://www.w3.org/2000/svg">
<path d="M104.5 9.75C52.5 9.75 10.25 52 10.25 104C10.25 156 52.5 198.25 104.5 198.25C156.5 198.25 198.75 156 198.75 104C198.75 52 156.5 9.75 104.5 9.75ZM104.5 19.5C151.137 19.5 189 57.3625 189 104C189 150.637 151.137 188.5 104.5 188.5C57.8625 188.5 20 150.637 20 104C20 57.3625 57.8625 19.5 104.5 19.5ZM138.685 79.5425C137.446 79.5831 136.188 80.1131 135.213 81.0881L101.25 116.349L83.5369 97.3381C81.7494 95.3881 78.6631 95.2237 76.7131 97.0112C74.7631 98.7987 74.5987 101.888 76.3862 103.838L97.6763 126.75C98.6513 127.725 99.7875 128.375 101.25 128.375C102.55 128.375 103.849 127.887 104.824 126.912L142.199 87.75C143.986 85.8 143.987 82.7138 142.037 80.9263C141.143 79.9513 139.924 79.5019 138.685 79.5425Z" fill="#20E300"/>
</svg>
